<?xml version="1.0" standalone="no"?>
<!DOCTYPE svg PUBLIC "-//W3C//DTD SVG 20010904//EN"
 "http://www.w3.org/TR/2001/REC-SVG-20010904/DTD/svg10.dtd">
<svg version="1.0" xmlns="http://www.w3.org/2000/svg"
 width="700.000000pt" height="700.000000pt" viewBox="0 0 700.000000 700.000000"
 preserveAspectRatio="xMidYMid meet">
<metadata>
Created by potrace 1.11, written by Peter Selinger 2001-2013
</metadata>
<g transform="translate(0.000000,700.000000) scale(0.100000,-0.100000)"
fill="#000000" stroke="none">
<path d="M3457 6224 c-1 -1 -47 -4 -102 -8 -55 -3 -115 -8 -133 -11 -18 -2
-52 -7 -75 -10 -84 -12 -277 -54 -297 -65 -12 -6 -20 -17 -17 -23 2 -7 33
-118 67 -247 34 -129 89 -334 122 -455 32 -121 67 -251 78 -290 10 -38 41
-151 68 -250 28 -99 55 -199 61 -222 10 -38 14 -41 39 -36 183 36 393 38 517
4 108 -30 259 -104 377 -185 l98 -67 251 248 c137 137 393 388 567 560 174
172 314 314 312 315 -3 2 -36 31 -75 64 -108 92 -190 155 -305 231 -404 268
-777 400 -1235 439 -75 6 -313 13 -318 8z"/>
<path d="M2645 6071 c-385 -140 -749 -368 -1028 -646 -266 -263 -458 -559
-612 -940 -48 -120 -100 -276 -92 -280 1 -1 99 -28 217 -60 118 -32 278 -75
355 -96 152 -41 371 -99 395 -104 8 -2 69 -18 135 -36 411 -108 450 -117 461
-106 7 7 29 55 49 107 104 263 265 449 534 613 33 20 61 44 61 52 0 14 -49
205 -101 395 -31 116 -60 223 -64 240 -2 8 -16 58 -31 110 -14 52 -27 102 -29
110 -6 29 -145 526 -165 593 -12 37 -24 67 -28 67 -4 -1 -29 -9 -57 -19z"/>
<path d="M5308 5249 c-84 -83 -338 -335 -565 -559 l-411 -408 76 -77 c119
-120 290 -238 392 -269 14 -5 30 -10 35 -12 78 -30 306 -38 435 -15 69 13 202
73 260 119 109 85 231 238 267 334 69 187 70 458 2 613 -25 56 -91 160 -141
220 -48 57 -187 205 -193 205 -2 0 -73 -68 -157 -151z"/>
<path d="M876 4053 c-4 -9 -9 -32 -12 -52 -2 -20 -6 -45 -9 -56 -26 -124 -26
-771 -1 -814 2 -3 7 -28 10 -56 30 -220 131 -523 259 -770 112 -216 215 -368
372 -549 28 -32 54 -64 58 -72 4 -8 17 -18 27 -24 18 -10 83 52 580 548 308
308 560 566 560 574 0 8 -8 23 -18 34 -32 35 -96 138 -135 219 -92 185 -101
226 -112 514 -2 63 -8 118 -12 122 -6 6 -335 97 -413 114 -30 7 -397 105 -445
119 -27 8 -65 18 -84 21 -19 3 -37 8 -41 10 -16 10 -525 135 -550 135 -17 0
-30 -7 -34 -17z"/>
<path d="M5028 3145 c-2 -1 -28 -5 -58 -8 -96 -11 -235 -54 -298 -94 -40 -25
-112 -85 -237 -197 -233 -209 -408 -330 -560 -387 -30 -11 -55 -23 -55 -27 0
-4 10 -41 21 -82 11 -41 22 -83 24 -92 5 -25 53 -204 70 -263 22 -76 67 -238
70 -255 3 -15 46 -174 65 -240 6 -19 42 -152 81 -295 39 -143 75 -268 80 -277
8 -16 13 -16 61 -1 355 105 655 259 953 490 197 152 462 433 542 573 77 134
98 218 97 390 0 153 -23 249 -90 378 -111 212 -287 333 -549 377 -33 6 -213
14 -217 10z"/>
<path d="M2241 2141 c-331 -328 -562 -564 -559 -572 10 -32 415 -339 447 -339
5 0 11 -4 13 -8 5 -13 250 -135 353 -176 50 -20 98 -41 107 -46 10 -6 26 -10
36 -10 10 0 22 -4 27 -8 12 -11 122 -45 247 -77 92 -23 222 -45 373 -62 86
-10 466 -9 555 1 126 14 145 16 175 22 17 3 44 10 61 15 l31 10 -12 52 c-18
73 -138 530 -215 812 -23 83 -48 175 -56 205 -8 30 -24 88 -35 128 -11 40 -22
81 -24 90 -11 49 -58 218 -62 222 -2 2 -37 5 -76 6 -97 3 -255 13 -292 19
-126 22 -306 114 -513 262 -15 11 -86 -56 -581 -546z"/>
</g>
</svg>
